<svg width="379.11501464843747px" height="120.8px" xmlns="http://www.w3.org/2000/svg" viewBox="60.44249267578127 14.600000000000001 379.11501464843747 120.8" style="background: rgba(0, 0, 0, 0);" preserveAspectRatio="xMidYMid"><defs><filter id="editing-extrusion" x="-100%" y="-100%" width="300%" height="300%"><feFlood result="color1" flood-color="#444"></feFlood><feConvolveMatrix order="8,8" divisor="1" kernelMatrix="1 0 0 0 0 0 0 0 0 1 0 0 0 0 0 0 0 0 1 0 0 0 0 0 0 0 0 1 0 0 0 0 0 0 0 0 1 0 0 0 0 0 0 0 0 1 0 0 0 0 0 0 0 0 1 0 0 0 0 0 0 0 0 1" in="SourceAlpha" result="extrude"></feConvolveMatrix><feComposite in="color1" in2="extrude" result="comp-extrude" operator="in"></feComposite><feOffset dx="4" dy="4" in="comp-extrude" result="offset-extrude"></feOffset><feMerge><feMergeNode in="offset-extrude"></feMergeNode><feMergeNode in="SourceGraphic"></feMergeNode></feMerge></filter></defs><g filter="url(#editing-extrusion)"><g transform="translate(119.91708099842072, 104.44000053405762)"><path d="M26.05-29.57L26.05-29.57L26.05-29.57Q27.01-31.49 27.01-33.28L27.01-33.28L27.01-33.28Q27.01-35.07 26.82-36.06L26.82-36.06L26.82-36.06Q26.62-37.06 26.18-37.82L26.18-37.82L26.18-37.82Q25.22-39.49 23.30-39.49L23.30-39.49L23.30-39.49Q20.93-39.49 19.01-37.76L19.01-37.76L19.01-37.76Q16.96-35.97 16.96-33.15L16.96-33.15L16.96-33.15Q16.96-31.36 18.21-29.98L18.21-29.98L18.21-29.98Q19.46-28.61 21.38-27.33L21.38-27.33L21.38-27.33Q23.30-26.05 25.47-24.77L25.47-24.77L25.47-24.77Q27.65-23.49 29.57-21.95L29.57-21.95L29.57-21.95Q33.98-18.43 33.98-13.70L33.98-13.70L33.98-13.70Q33.98-10.50 32.29-7.78L32.29-7.78L32.29-7.78Q30.59-5.06 27.78-3.07L27.78-3.07L27.78-3.07Q21.63 1.28 13.50 1.28L13.50 1.28L13.50 1.28Q6.91 1.28 3.52-0.86L3.52-0.86L3.52-0.86Q0.13-3.01 0.13-6.27L0.13-6.27L0.13-6.27Q0.13-12.10 4.67-13.57L4.67-13.57L4.67-13.57Q5.95-14.02 7.90-14.02L7.90-14.02L7.90-14.02Q9.86-14.02 12.10-13.18L12.10-13.18L12.10-13.18Q11.07-10.56 11.07-8.19L11.07-8.19L11.07-8.19Q11.07-3.07 14.72-3.07L14.72-3.07L14.72-3.07Q17.09-3.07 19.04-4.80L19.04-4.80L19.04-4.80Q20.99-6.53 20.99-8.48L20.99-8.48L20.99-8.48Q20.99-10.43 19.74-11.84L19.74-11.84L19.74-11.84Q18.50-13.25 16.64-14.37L16.64-14.37L16.64-14.37Q14.78-15.49 12.64-16.58L12.64-16.58L12.64-16.58Q10.50-17.66 8.64-19.20L8.64-19.20L8.64-19.20Q4.29-22.72 4.29-28.35L4.29-28.35L4.29-28.35Q4.29-32 6.08-34.85L6.08-34.85L6.08-34.85Q7.87-37.70 10.75-39.62L10.75-39.62L10.75-39.62Q16.51-43.52 23.58-43.52L23.58-43.52L23.58-43.52Q30.66-43.52 34.08-41.41L34.08-41.41L34.08-41.41Q37.50-39.30 37.50-35.71L37.50-35.71L37.50-35.71Q37.50-32.58 35.07-30.59L35.07-30.59L35.07-30.59Q32.96-28.93 30.40-28.93L30.40-28.93L30.40-28.93Q27.84-28.93 26.05-29.57ZM71.04-7.10L71.04-7.10L71.04-7.10Q71.04-4.29 73.92-3.46L73.92-3.46L73.92-3.46Q73.22-1.09 70.46 0.19L70.46 0.19L70.46 0.19Q68.16 1.28 65.63 1.28L65.63 1.28L65.63 1.28Q63.10 1.28 61.79 0.61L61.79 0.61L61.79 0.61Q60.48-0.06 59.78-1.15L59.78-1.15L59.78-1.15Q58.62-2.82 58.62-5.95L58.62-5.95L58.62-5.95Q58.62-7.81 59.65-12.93L59.65-12.93L60.54-17.79L60.54-17.79Q61.63-23.36 61.63-25.41L61.63-25.41L61.63-25.41Q61.63-28.99 59.65-28.99L59.65-28.99L59.65-28.99Q57.15-28.99 55.55-25.34L55.55-25.34L55.55-25.34Q54.91-23.94 54.46-21.82L54.46-21.82L50.11 0L37.25 1.28L46.27-44.80L59.14-46.08L58.62-43.52L58.62-43.52Q56.83-33.66 55.30-30.34L55.30-30.34L55.30-30.34Q58.88-33.92 65.47-33.92L65.47-33.92L65.47-33.92Q72.45-33.92 73.73-29.31L73.73-29.31L73.73-29.31Q74.18-27.84 74.18-26.56L74.18-26.56L74.18-26.56Q74.18-25.28 74.08-24.29L74.08-24.29L74.08-24.29Q73.98-23.30 73.66-21.50L73.66-21.50L72.83-16.90L71.36-9.66L71.36-9.66Q71.04-8.19 71.04-7.10ZM93.06 1.28L93.06 1.28L93.06 1.28Q78.98 1.28 78.98-11.97L78.98-11.97L78.98-11.97Q78.98-21.38 84.16-27.46L84.16-27.46L84.16-27.46Q89.66-33.92 99.20-33.92L99.20-33.92L99.20-33.92Q106.11-33.92 109.63-30.72L109.63-30.72L109.63-30.72Q113.15-27.52 113.15-20.80L113.15-20.80L113.15-20.80Q113.15-10.56 107.65-4.61L107.65-4.61L107.65-4.61Q102.27 1.28 93.06 1.28ZM94.72-26.56L94.72-26.56L94.72-26.56Q93.95-24.83 93.34-22.24L93.34-22.24L93.34-22.24Q92.74-19.65 91.97-15.55L91.97-15.55L91.97-15.55Q91.20-11.46 91.20-6.40L91.20-6.40L91.20-6.40Q91.20-4.74 91.74-3.65L91.74-3.65L91.74-3.65Q92.29-2.56 93.76-2.56L93.76-2.56L93.76-2.56Q95.23-2.56 96.16-3.26L96.16-3.26L96.16-3.26Q97.09-3.97 97.79-5.63L97.79-5.63L97.79-5.63Q99.07-8.58 100.10-14.05L100.10-14.05L100.10-14.05Q101.12-19.52 101.22-21.89L101.22-21.89L101.22-21.89Q101.31-24.26 101.31-26.02L101.31-26.02L101.31-26.02Q101.31-27.78 100.80-28.93L100.80-28.93L100.80-28.93Q100.29-30.08 98.85-30.08L98.85-30.08L98.85-30.08Q97.41-30.08 96.45-29.18L96.45-29.18L96.45-29.18Q95.49-28.29 94.72-26.56ZM146.75-4.38L146.75-4.38L146.75-4.38Q144.06-1.66 140.38-0.19L140.38-0.19L140.38-0.19Q136.70 1.28 133.06 1.28L133.06 1.28L133.06 1.28Q129.41 1.28 128.13 0.64L128.13 0.64L126.14 11.52L113.15 12.80L121.98-32.64L132.42-33.73L131.58-29.31L131.58-29.31Q134.27-33.86 139.84-33.86L139.84-33.86L139.84-33.86Q146.11-33.86 149.44-29.82L149.44-29.82L149.44-29.82Q152.38-26.18 152.38-20.61L152.38-20.61L152.38-20.61Q152.38-15.04 150.91-11.07L150.91-11.07L150.91-11.07Q149.44-7.10 146.75-4.38ZM132.29-22.34L128.90-3.58L128.90-3.58Q130.24-2.43 131.90-2.43L131.90-2.43L131.90-2.43Q133.57-2.43 134.53-3.07L134.53-3.07L134.53-3.07Q135.49-3.71 136.19-4.99L136.19-4.99L136.19-4.99Q138.11-8.45 139.65-18.94L139.65-18.94L139.65-18.94Q140.10-22.02 140.10-25.02L140.10-25.02L140.10-25.02Q140.10-28.03 139.42-28.99L139.42-28.99L139.42-28.99Q138.75-29.95 137.47-29.95L137.47-29.95L137.47-29.95Q133.57-29.95 132.29-22.34L132.29-22.34ZM182.14-10.82L182.14-10.82L182.14-10.82Q183.74-9.73 183.74-7.33L183.74-7.33L183.74-7.33Q183.74-4.93 182.53-3.39L182.53-3.39L182.53-3.39Q181.31-1.86 179.33-0.83L179.33-0.83L179.33-0.83Q175.23 1.28 170.82 1.28L170.82 1.28L170.82 1.28Q166.40 1.28 163.81 0.32L163.81 0.32L163.81 0.32Q161.22-0.64 159.49-2.43L159.49-2.43L159.49-2.43Q156.10-5.82 156.10-12.03L156.10-12.03L156.10-12.03Q156.10-21.70 161.34-27.58L161.34-27.58L161.34-27.58Q166.98-33.92 176.77-33.92L176.77-33.92L176.77-33.92Q182.85-33.92 185.86-31.36L185.86-31.36L185.86-31.36Q188.10-29.44 188.10-26.30L188.10-26.30L188.10-26.30Q188.10-15.04 168.64-15.04L168.64-15.04L168.64-15.04Q168.38-13.38 168.38-11.97L168.38-11.97L168.38-11.97Q168.38-9.02 169.70-7.90L169.70-7.90L169.70-7.90Q171.01-6.78 173.44-6.78L173.44-6.78L173.44-6.78Q175.87-6.78 178.46-7.90L178.46-7.90L178.46-7.90Q181.06-9.02 182.14-10.82ZM169.09-17.79L169.09-17.79L169.09-17.79Q173.63-17.79 176.26-20.61L176.26-20.61L176.26-20.61Q178.88-23.30 178.88-27.58L178.88-27.58L178.88-27.58Q178.88-29.06 178.34-29.86L178.34-29.86L178.34-29.86Q177.79-30.66 176.70-30.66L176.70-30.66L176.70-30.66Q175.62-30.66 174.69-30.24L174.69-30.24L174.69-30.24Q173.76-29.82 172.80-28.42L172.80-28.42L172.80-28.42Q170.43-25.22 169.09-17.79ZM216.19-10.82L216.19-10.82L216.19-10.82Q217.79-9.73 217.79-7.33L217.79-7.33L217.79-7.33Q217.79-4.93 216.58-3.39L216.58-3.39L216.58-3.39Q215.36-1.86 213.38-0.83L213.38-0.83L213.38-0.83Q209.28 1.28 204.86 1.28L204.86 1.28L204.86 1.28Q200.45 1.28 197.86 0.32L197.86 0.32L197.86 0.32Q195.26-0.64 193.54-2.43L193.54-2.43L193.54-2.43Q190.14-5.82 190.14-12.03L190.14-12.03L190.14-12.03Q190.14-21.70 195.39-27.58L195.39-27.58L195.39-27.58Q201.02-33.92 210.82-33.92L210.82-33.92L210.82-33.92Q216.90-33.92 219.90-31.36L219.90-31.36L219.90-31.36Q222.14-29.44 222.14-26.30L222.14-26.30L222.14-26.30Q222.14-15.04 202.69-15.04L202.69-15.04L202.69-15.04Q202.43-13.38 202.43-11.97L202.43-11.97L202.43-11.97Q202.43-9.02 203.74-7.90L203.74-7.90L203.74-7.90Q205.06-6.78 207.49-6.78L207.49-6.78L207.49-6.78Q209.92-6.78 212.51-7.90L212.51-7.90L212.51-7.90Q215.10-9.02 216.19-10.82ZM203.14-17.79L203.14-17.79L203.14-17.79Q207.68-17.79 210.30-20.61L210.30-20.61L210.30-20.61Q212.93-23.30 212.93-27.58L212.93-27.58L212.93-27.58Q212.93-29.06 212.38-29.86L212.38-29.86L212.38-29.86Q211.84-30.66 210.75-30.66L210.75-30.66L210.75-30.66Q209.66-30.66 208.74-30.24L208.74-30.24L208.74-30.24Q207.81-29.82 206.85-28.42L206.85-28.42L206.85-28.42Q204.48-25.22 203.14-17.79ZM251.39 1.28L251.39 1.28L251.39 1.28Q243.65 1.28 243.65-4.74L243.65-4.74L243.65-4.74Q243.71-6.40 244.22-9.22L244.22-9.22L245.38-15.10L245.38-15.10Q247.10-23.42 247.10-25.28L247.10-25.28L247.10-25.28Q247.10-28.99 244.93-28.99L244.93-28.99L244.93-28.99Q241.28-28.99 239.36-19.46L239.36-19.46L235.58 0L222.72 1.28L229.38-32.70L239.87-33.92L238.85-27.65L238.85-27.65Q241.86-33.92 251.07-33.92L251.07-33.92L251.07-33.92Q255.55-33.92 257.44-32.03L257.44-32.03L257.44-32.03Q259.33-30.14 259.33-25.92L259.33-25.92L259.33-25.92Q259.33-21.95 257.28-12.67L257.28-12.67L257.28-12.67Q256.32-8.51 256.32-6.94L256.32-6.94L256.32-6.94Q256.32-5.38 257.18-4.48L257.18-4.48L257.18-4.48Q258.05-3.58 259.33-3.46L259.33-3.46L259.33-3.46Q258.69-1.28 256.48 0L256.48 0L256.48 0Q254.27 1.28 251.39 1.28Z" fill="#ccc"></path></g></g><style>text {
  font-size: 64px;
  font-family: Arial Black;
  dominant-baseline: central;
  text-anchor: middle;
}</style></svg>